<?xml version="1.0" standalone="no"?>
<!DOCTYPE svg PUBLIC "-//W3C//DTD SVG 20010904//EN"
 "http://www.w3.org/TR/2001/REC-SVG-20010904/DTD/svg10.dtd">
<svg version="1.0" xmlns="http://www.w3.org/2000/svg"
 width="256.000000pt" height="256.000000pt" viewBox="0 0 256.000000 256.000000"
 preserveAspectRatio="xMidYMid meet">
<metadata>
Created by potrace 1.14, written by Peter Selinger 2001-2017
</metadata>
<g transform="translate(0.000000,256.000000) scale(0.100000,-0.100000)"
fill="#000000" stroke="none">
<path d="M1135 2531 c-45 -5 -13 -8 125 -12 156 -5 200 -10 283 -32 111 -29
255 -95 345 -156 92 -62 83 -66 -16 -7 -439 258 -969 222 -1366 -93 -272 -217
-446 -578 -446 -928 0 -55 -4 -93 -10 -93 -16 0 -12 226 5 326 9 49 29 127 44
174 33 96 34 121 2 36 -115 -309 -101 -650 39 -944 69 -144 131 -232 240 -342
235 -237 531 -360 866 -360 320 0 626 126 853 351 247 245 371 562 358 914
-22 569 -424 1037 -987 1148 -91 18 -253 27 -335 18z m305 -416 c36 -9 112
-40 170 -68 94 -45 116 -61 206 -151 82 -83 108 -117 147 -192 73 -143 92
-222 92 -389 -1 -104 -5 -157 -19 -205 -20 -74 -90 -230 -103 -230 -5 0 -35
26 -67 59 -50 51 -57 61 -47 79 8 15 6 23 -8 36 -18 16 -20 16 -29 -1 -10 -17
-14 -15 -47 17 -28 27 -35 41 -31 60 2 15 -2 32 -11 42 -15 17 -17 17 -29 0
-12 -16 -15 -15 -43 12 -22 21 -31 39 -31 61 0 21 -9 40 -25 55 l-25 23 0 -29
c0 -27 -5 -23 -95 66 l-95 95 0 286 0 286 -25 23 -25 23 -143 -138 c-78 -77
-144 -141 -146 -142 -2 -1 2 -11 10 -20 7 -10 -14 7 -47 37 -112 104 -194 184
-194 191 0 4 37 25 83 47 83 41 160 67 245 82 68 13 257 4 332 -15z m-150
-366 l0 -231 -119 113 -119 114 116 118 c64 64 118 117 119 117 2 0 3 -104 3
-231z m-685 -59 c59 -59 59 -60 30 -60 -18 0 -40 -10 -57 -27 l-28 -27 0 -265
0 -265 27 -28 c26 -28 28 -28 147 -28 l121 0 227 -227 227 -227 26 24 c25 23
25 24 25 197 0 95 3 173 7 173 11 0 313 -303 313 -313 0 -12 -157 -83 -225
-102 -97 -26 -265 -31 -365 -11 -272 55 -505 245 -606 494 -46 116 -58 180
-58 317 0 105 4 145 22 210 23 79 88 225 101 225 4 0 33 -27 66 -60z m171
-171 l54 -52 0 -208 0 -209 -110 0 -110 0 0 260 0 260 56 0 c53 0 58 -2 110
-51z m514 -699 l0 -185 -200 200 -200 200 0 185 0 185 200 -200 200 -200 0
-185z m785 291 c-20 -92 -97 -261 -119 -261 -8 0 -18 5 -21 10 -4 6 -1 9 5 8
28 -7 120 217 137 334 7 46 8 49 11 19 2 -18 -4 -68 -13 -110z m-1055 -606
c59 -16 106 -20 220 -20 166 1 225 13 359 76 92 43 110 47 90 22 -22 -26 -146
-79 -244 -103 -120 -30 -286 -30 -400 -1 -84 22 -223 84 -265 119 -13 11 18
-1 70 -27 52 -25 129 -55 170 -66z"/>
<path d="M434 2228 l-19 -23 23 19 c12 11 22 21 22 23 0 8 -8 2 -26 -19z"/>
<path d="M324 2118 l-19 -23 23 19 c12 11 22 21 22 23 0 8 -8 2 -26 -19z"/>
<path d="M150 1859 c-12 -23 -20 -43 -18 -45 3 -2 14 17 26 41 27 56 20 60 -8
4z"/>
</g>
</svg>
